<?xml version="1.0" encoding="utf-8"?>
<!-- Svg Vector Icons : http://www.onlinewebfonts.com/icon -->
<!DOCTYPE svg PUBLIC "-//W3C//DTD SVG 1.1//EN" "http://www.w3.org/Graphics/SVG/1.1/DTD/svg11.dtd">
<svg version="1.1" xmlns="http://www.w3.org/2000/svg" xmlns:xlink="http://www.w3.org/1999/xlink" x="0px" y="0px" viewBox="0 0 1000 1000" enable-background="new 0 0 1000 1000" xml:space="preserve">
<metadata> Svg Vector Icons : http://www.onlinewebfonts.com/icon </metadata>
<g><g transform="translate(0.000000,511.000000) scale(0.100000,-0.100000)"><path d="M1066.9,4976.8c-196.2-70.4-271.7-213.8-352.2-661.6c-98.1-563.5-108.2-1330.7-27.7-1942c201.2-1489.2,815-2679,1680.4-3252.5c271.7-181.1,495.5-284.3,799.9-364.8c332.1-88,908.1-93.1,1240.1-10.1C5557.1-969.8,6404.8,59,6792.2,1631.2c218.8,900.5,256.6,1914.3,95.6,2769.6c-57.9,306.9-120.8,447.7-244,528.3c-140.9,95.6-246.5,98.1-538.3,10.1c-641.5-191.2-1267.8-264.1-2296.7-264.1c-1028.8,0-1672.8,72.9-2286.6,264.1C1243,5024.6,1207.8,5027.1,1066.9,4976.8z M1383.9,4564.3c281.7-95.6,832.6-201.2,1368.4-259.1c460.3-50.3,1765.9-42.8,2238.8,12.6c432.7,52.8,885.5,138.3,1194.9,228.9c120.7,35.2,223.9,52.8,236.5,40.2c72.9-72.9,166-799.9,166-1298c0-1174.7-304.4-2306.7-832.6-3096.6c-161-241.5-588.6-669.1-782.3-782.3c-417.6-246.5-822.6-347.1-1277.9-324.5c-322,17.6-525.7,67.9-799.9,196.2C2619-590,2415.3-444.1,2186.3-202.6c-716.9,752.1-1157.1,2077.8-1157.1,3491.5c0,455.3,83,1142,156,1280.4C1212.8,4622.1,1217.9,4622.1,1383.9,4564.3z"/><path d="M2385.1,3203.4c-500.6-88-747.1-525.7-490.5-862.8c52.8-70.4,138.4-135.8,251.6-193.7l173.6-88h367.3c420.1,0,523.2,30.2,593.7,166c60.4,113.2,42.8,349.6-37.7,513.2c-75.5,158.5-269.2,352.2-410,415.1C2699.5,3210.9,2533.5,3231,2385.1,3203.4z M2661.8,2790.8c90.6-47.8,223.9-201.2,244-281.7c10.1-35.2,12.6-65.4,7.5-70.4c-5-5-130.8,0-276.7,10.1c-281.7,17.6-410,65.4-440.2,158.5c-20.1,62.9,52.8,135.8,181.1,181.1C2505.8,2833.6,2576.2,2833.6,2661.8,2790.8z"/><path d="M4928.2,3205.9c-223.9-45.3-432.7-213.8-566-457.8c-62.9-115.7-75.5-163.5-75.5-317c0-166,5-186.1,72.9-256.6c98.1-103.1,276.7-138.3,631.4-120.8c322,15.1,465.4,57.9,616.3,186.2c337.1,289.3,228.9,747.1-213.8,910.6C5242.7,3205.9,5049,3228.5,4928.2,3205.9z M5192.4,2798.4c123.2-30.2,221.4-120.7,208.8-191.2c-15.1-85.5-211.3-153.4-478-163.5c-218.8-10.1-246.5-5-246.5,32.7c0,67.9,156,256.6,251.5,304.4C5031.4,2833.6,5046.5,2833.6,5192.4,2798.4z"/><path d="M2505.8,1357c-83-78-118.2-208.8-118.2-442.7c0-621.3,402.5-1169.7,1006.2-1360.9c226.4-73,603.7-73,830.1,0c472.9,150.9,842.7,535.8,968.5,1008.7c42.8,163.5,47.8,500.6,10,638.9c-62.9,228.9-256.6,281.7-475.4,130.8c-266.6-183.6-583.6-254.1-1028.8-233.9c-347.1,15.1-553.4,73-779.8,218.9C2729.7,1437.5,2606.4,1450.1,2505.8,1357z M2915.8,864c236.5-120.7,467.9-163.5,893-163.5c425.1,0,656.5,42.8,893,163.5c55.3,27.7,105.7,50.3,115.7,50.3c42.8,0-12.6-281.7-85.5-435.2C4591.1,174.7,4311.9-36.6,3972.3-97c-432.7-75.5-898,168.5-1086.7,573.5c-67.9,145.9-125.8,437.7-85.5,437.7C2810.2,914.3,2860.5,891.6,2915.8,864z"/><path d="M8500.2,1475.2c-103.1-32.7-289.3-83-415.1-110.7c-256.6-55.3-945.8-148.4-1091.7-148.4h-95.6l-67.9-186.1c-35.2-103.1-65.4-193.7-65.4-206.3c0-10.1,125.8-10.1,281.7,0C7562,853.9,8165.7,957,8573.2,1080.3c259.1,78,256.6,80.5,314.5-236.5c72.9-400,98.1-757.2,83-1225.1c-52.9-1587.3-611.3-2945.6-1471.6-3579.5c-767.2-566-1801.1-573.5-2583.4-17.6c-196.2,140.9-503.1,460.3-659.1,694.3c-296.8,440.2-555.9,1076.6-696.8,1710.5c-12.6,57.8-30.2,67.9-158.5,80.5c-80.5,10.1-171,25.2-201.2,32.7c-75.5,20.1-75.5-7.6,15.1-379.8c279.2-1137,840.2-2047.6,1547-2515.5c1033.9-681.7,2372.1-550.9,3265.1,322C8709-3367.1,9149.2-2348.3,9332.9-997.5c50.3,364.7,42.8,1303-10,1660.2c-90.6,583.6-150.9,727-344.6,825.1C8839.8,1558.2,8739.2,1555.7,8500.2,1475.2z"/><path d="M7267.7-275.6c-233.9-65.4-422.6-241.5-545.9-510.6c-52.8-115.7-60.4-168.5-52.8-289.3c10-125.8,22.6-163.5,85.5-223.9c98.1-98.1,294.3-135.8,641.5-118.2c294.3,12.6,493,80.5,636.4,213.8c296.8,279.2,171.1,724.5-249,883C7609.7-255.4,7403.5-237.8,7267.7-275.6z M7582.1-673c128.3-32.7,226.4-123.3,203.7-191.2c-30.2-95.6-161-140.8-442.7-158.5c-145.9-7.5-269.2-12.6-274.2-10.1c-5,5-2.5,35.2,7.6,70.4c30.2,125.8,241.5,316.9,349.6,316.9C7451.3-645.3,7521.7-657.9,7582.1-673z"/><path d="M4890.5-2109.4c-80.5-70.4-110.7-198.7-113.2-460.3c0-384.9,133.3-704.3,412.5-981c294.3-294.3,598.7-420.1,1008.7-417.6c412.6,0,714.4,125.8,1006.2,417.6c276.7,276.7,415,606.2,415,993.6c0,352.2-85.5,503.1-284.2,503.1c-78,0-133.3-17.6-196.2-65.4c-213.8-163.5-571-261.6-950.9-261.6c-374.8,0-674.2,80.5-918.2,249C5129.5-2033.9,4988.6-2026.3,4890.5-2109.4z M5396.1-2642.6c191.2-80.5,535.8-140.9,802.5-140.9c349.7,0,628.9,62.9,991.1,218.8c62.9,27.7,15.1-256.6-73-435.2c-198.7-405-646.5-638.9-1071.6-566c-457.8,80.5-802.4,430.1-862.8,872.9C5159.7-2534.5,5144.6-2537,5396.1-2642.6z"/></g></g>
</svg>